<svg id='icon-button' width="126" height="48" viewBox="0 0 128 48" fill="none" xmlns="http://www.w3.org/2000/svg">
<g filter="url(#filter0_d_7409_964)">
<path d="M2 10C2 5.58172 5.58172 2 10 2H112C116.418 2 120 5.58172 120 10V34C120 38.4183 116.418 42 112 42H10C5.58172 42 2 38.4183 2 34V10Z" fill="#D51010" shape-rendering="crispEdges"/>
<path d="M19.5714 13C18.1531 13 17 14.1531 17 15.5714V28.4286C17 29.8469 18.1531 31 19.5714 31H32.4286C33.8469 31 35 29.8469 35 28.4286V15.5714C35 14.1531 33.8469 13 32.4286 13H19.5714ZM25.0357 25.5357V22.9643H22.4643C21.9299 22.9643 21.5 22.5344 21.5 22C21.5 21.4656 21.9299 21.0357 22.4643 21.0357H25.0357V18.4643C25.0357 17.9299 25.4656 17.5 26 17.5C26.5344 17.5 26.9643 17.9299 26.9643 18.4643V21.0357H29.5357C30.0701 21.0357 30.5 21.4656 30.5 22C30.5 22.5344 30.0701 22.9643 29.5357 22.9643H26.9643V25.5357C26.9643 26.0701 26.5344 26.5 26 26.5C25.4656 26.5 25.0357 26.0701 25.0357 25.5357Z" fill="white"/>
<g filter="url(#filter1_d_7409_964)">
<mask id="path-3-outside-1_7409_964" maskUnits="userSpaceOnUse" x="45" y="15" width="60" height="16" fill="black">
<rect fill="white" x="45" y="15" width="60" height="16"/>
<path d="M51.536 27.192C50.6507 27.192 49.8453 26.984 49.12 26.568C48.4053 26.152 47.8347 25.544 47.408 24.744C46.992 23.9333 46.784 22.952 46.784 21.8C46.784 20.9467 46.9067 20.184 47.152 19.512C47.3973 18.8293 47.7387 18.2533 48.176 17.784C48.624 17.3147 49.136 16.9573 49.712 16.712C50.288 16.4667 50.9067 16.344 51.568 16.344C52.2293 16.344 52.816 16.4773 53.328 16.744C53.84 17 54.2613 17.3093 54.592 17.672L53.6 18.808C53.3333 18.5307 53.0347 18.3227 52.704 18.184C52.384 18.0347 52.0213 17.96 51.616 17.96C51.0613 17.96 50.56 18.1147 50.112 18.424C49.6747 18.7333 49.328 19.1707 49.072 19.736C48.816 20.3013 48.688 20.9733 48.688 21.752C48.688 22.552 48.8107 23.24 49.056 23.816C49.3013 24.3813 49.648 24.8187 50.096 25.128C50.544 25.4267 51.0667 25.576 51.664 25.576C52.112 25.576 52.512 25.4853 52.864 25.304C53.216 25.1227 53.536 24.8827 53.824 24.584L54.768 25.688C54.3413 26.1787 53.8613 26.552 53.328 26.808C52.7947 27.064 52.1973 27.192 51.536 27.192ZM59.6028 27.192C58.9521 27.192 58.3441 27.032 57.7788 26.712C57.2134 26.3813 56.7548 25.912 56.4028 25.304C56.0508 24.6853 55.8748 23.944 55.8748 23.08C55.8748 22.2053 56.0508 21.464 56.4028 20.856C56.7548 20.2373 57.2134 19.768 57.7788 19.448C58.3441 19.1173 58.9521 18.952 59.6028 18.952C60.2641 18.952 60.8774 19.1173 61.4428 19.448C62.0081 19.768 62.4668 20.2373 62.8188 20.856C63.1708 21.464 63.3468 22.2053 63.3468 23.08C63.3468 23.944 63.1708 24.6853 62.8188 25.304C62.4668 25.912 62.0081 26.3813 61.4428 26.712C60.8774 27.032 60.2641 27.192 59.6028 27.192ZM59.6028 25.688C59.9868 25.688 60.3174 25.5813 60.5948 25.368C60.8721 25.1547 61.0854 24.8507 61.2348 24.456C61.3841 24.0613 61.4588 23.6027 61.4588 23.08C61.4588 22.5573 61.3841 22.0987 61.2348 21.704C61.0854 21.3093 60.8721 21.0053 60.5948 20.792C60.3174 20.568 59.9868 20.456 59.6028 20.456C59.2188 20.456 58.8881 20.568 58.6108 20.792C58.3441 21.0053 58.1361 21.3093 57.9868 21.704C57.8374 22.0987 57.7628 22.5573 57.7628 23.08C57.7628 23.6027 57.8374 24.0613 57.9868 24.456C58.1361 24.8507 58.3441 25.1547 58.6108 25.368C58.8881 25.5813 59.2188 25.688 59.6028 25.688ZM67.1763 27.192C66.6536 27.192 66.1416 27.128 65.6403 27C65.1389 26.872 64.6483 26.616 64.1683 26.232L64.9363 25.048C65.2776 25.304 65.6243 25.4853 65.9763 25.592C66.3389 25.6987 66.6856 25.752 67.0163 25.752C67.3363 25.752 67.6243 25.7093 67.8802 25.624C68.1363 25.528 68.3389 25.4 68.4883 25.24C68.6376 25.0693 68.7123 24.8667 68.7123 24.632C68.7123 24.2907 68.5789 24.04 68.3123 23.88C68.0456 23.72 67.6456 23.64 67.1123 23.64H65.9283V22.264H66.9523C67.4536 22.264 67.8216 22.184 68.0563 22.024C68.3016 21.8533 68.4243 21.624 68.4243 21.336C68.4243 21.016 68.2963 20.776 68.0403 20.616C67.7949 20.456 67.4643 20.376 67.0483 20.376C66.6536 20.376 66.2963 20.424 65.9763 20.52C65.6669 20.616 65.3576 20.7707 65.0483 20.984L64.3283 19.784C64.7336 19.5173 65.1656 19.3147 65.6243 19.176C66.0936 19.0267 66.6056 18.952 67.1603 18.952C67.7043 18.952 68.2056 19.032 68.6643 19.192C69.1336 19.3413 69.5069 19.576 69.7843 19.896C70.0723 20.216 70.2163 20.6213 70.2163 21.112C70.2163 21.4747 70.1096 21.816 69.8963 22.136C69.6936 22.456 69.3736 22.6907 68.9363 22.84V22.904C69.4163 23.0107 69.8003 23.2187 70.0883 23.528C70.3869 23.8267 70.5363 24.248 70.5363 24.792C70.5363 25.304 70.3763 25.7413 70.0563 26.104C69.7363 26.456 69.3203 26.728 68.8083 26.92C68.2963 27.1013 67.7523 27.192 67.1763 27.192ZM73.1254 27V29.752H71.5254L71.3494 26.728V25.528H79.7814V26.728L79.5894 29.752H78.0054V27H73.1254ZM76.7414 26.456V20.6H74.6454L74.4054 22.84C74.32 23.5333 74.2027 24.1147 74.0534 24.584C73.9147 25.0533 73.7387 25.432 73.5254 25.72C73.3227 26.008 73.0934 26.2213 72.8374 26.36C72.5814 26.4987 72.3147 26.584 72.0374 26.616L71.7974 25.528C71.9254 25.464 72.048 25.3413 72.1654 25.16C72.2934 24.9787 72.4054 24.68 72.5014 24.264C72.608 23.8373 72.7094 23.2293 72.8054 22.44L73.1894 19.144H78.5814V26.456H76.7414ZM83.2126 27.192C82.754 27.192 82.3486 27.096 81.9966 26.904C81.6446 26.712 81.3673 26.4453 81.1646 26.104C80.9726 25.752 80.8766 25.3467 80.8766 24.888C80.8766 24.0027 81.2446 23.336 81.9806 22.888C82.7273 22.4293 83.906 22.1147 85.5166 21.944C85.506 21.6773 85.4526 21.432 85.3566 21.208C85.2713 20.984 85.122 20.808 84.9086 20.68C84.706 20.5413 84.4286 20.472 84.0766 20.472C83.6926 20.472 83.314 20.5413 82.9406 20.68C82.578 20.8187 82.2206 20.9947 81.8686 21.208L81.1966 19.96C81.4846 19.7787 81.7993 19.6133 82.1406 19.464C82.482 19.304 82.8446 19.1813 83.2286 19.096C83.6126 19 84.0126 18.952 84.4286 18.952C85.0793 18.952 85.618 19.0853 86.0446 19.352C86.482 19.608 86.8073 19.992 87.0206 20.504C87.2446 21.0053 87.3566 21.624 87.3566 22.36V27H85.8366L85.7086 26.136H85.6446C85.282 26.4347 84.9033 26.6853 84.5086 26.888C84.114 27.0907 83.682 27.192 83.2126 27.192ZM83.7886 25.688C84.1086 25.688 84.402 25.624 84.6686 25.496C84.946 25.3573 85.2286 25.1547 85.5166 24.888V23.224C84.802 23.3093 84.2366 23.4213 83.8206 23.56C83.4046 23.6987 83.106 23.8693 82.9246 24.072C82.754 24.264 82.6686 24.4933 82.6686 24.76C82.6686 25.0907 82.7753 25.3307 82.9886 25.48C83.202 25.6187 83.4686 25.688 83.7886 25.688ZM91.0206 27V20.6H88.5566V19.144H95.3406V20.6H92.8766V27H91.0206ZM96.918 27V19.144H98.758V21.832H99.942C100.571 21.832 101.131 21.9173 101.622 22.088C102.113 22.2587 102.497 22.5307 102.774 22.904C103.051 23.2773 103.19 23.7733 103.19 24.392C103.19 25.0213 103.051 25.528 102.774 25.912C102.497 26.296 102.113 26.5733 101.622 26.744C101.131 26.9147 100.571 27 99.942 27H96.918ZM98.758 25.576H99.814C100.358 25.576 100.758 25.48 101.014 25.288C101.281 25.0853 101.414 24.7813 101.414 24.376C101.414 23.9813 101.281 23.6933 101.014 23.512C100.758 23.32 100.358 23.224 99.814 23.224H98.758V25.576Z"/>
</mask>
<path d="M51.536 27.192C50.6507 27.192 49.8453 26.984 49.12 26.568C48.4053 26.152 47.8347 25.544 47.408 24.744C46.992 23.9333 46.784 22.952 46.784 21.8C46.784 20.9467 46.9067 20.184 47.152 19.512C47.3973 18.8293 47.7387 18.2533 48.176 17.784C48.624 17.3147 49.136 16.9573 49.712 16.712C50.288 16.4667 50.9067 16.344 51.568 16.344C52.2293 16.344 52.816 16.4773 53.328 16.744C53.84 17 54.2613 17.3093 54.592 17.672L53.6 18.808C53.3333 18.5307 53.0347 18.3227 52.704 18.184C52.384 18.0347 52.0213 17.96 51.616 17.96C51.0613 17.96 50.56 18.1147 50.112 18.424C49.6747 18.7333 49.328 19.1707 49.072 19.736C48.816 20.3013 48.688 20.9733 48.688 21.752C48.688 22.552 48.8107 23.24 49.056 23.816C49.3013 24.3813 49.648 24.8187 50.096 25.128C50.544 25.4267 51.0667 25.576 51.664 25.576C52.112 25.576 52.512 25.4853 52.864 25.304C53.216 25.1227 53.536 24.8827 53.824 24.584L54.768 25.688C54.3413 26.1787 53.8613 26.552 53.328 26.808C52.7947 27.064 52.1973 27.192 51.536 27.192ZM59.6028 27.192C58.9521 27.192 58.3441 27.032 57.7788 26.712C57.2134 26.3813 56.7548 25.912 56.4028 25.304C56.0508 24.6853 55.8748 23.944 55.8748 23.08C55.8748 22.2053 56.0508 21.464 56.4028 20.856C56.7548 20.2373 57.2134 19.768 57.7788 19.448C58.3441 19.1173 58.9521 18.952 59.6028 18.952C60.2641 18.952 60.8774 19.1173 61.4428 19.448C62.0081 19.768 62.4668 20.2373 62.8188 20.856C63.1708 21.464 63.3468 22.2053 63.3468 23.08C63.3468 23.944 63.1708 24.6853 62.8188 25.304C62.4668 25.912 62.0081 26.3813 61.4428 26.712C60.8774 27.032 60.2641 27.192 59.6028 27.192ZM59.6028 25.688C59.9868 25.688 60.3174 25.5813 60.5948 25.368C60.8721 25.1547 61.0854 24.8507 61.2348 24.456C61.3841 24.0613 61.4588 23.6027 61.4588 23.08C61.4588 22.5573 61.3841 22.0987 61.2348 21.704C61.0854 21.3093 60.8721 21.0053 60.5948 20.792C60.3174 20.568 59.9868 20.456 59.6028 20.456C59.2188 20.456 58.8881 20.568 58.6108 20.792C58.3441 21.0053 58.1361 21.3093 57.9868 21.704C57.8374 22.0987 57.7628 22.5573 57.7628 23.08C57.7628 23.6027 57.8374 24.0613 57.9868 24.456C58.1361 24.8507 58.3441 25.1547 58.6108 25.368C58.8881 25.5813 59.2188 25.688 59.6028 25.688ZM67.1763 27.192C66.6536 27.192 66.1416 27.128 65.6403 27C65.1389 26.872 64.6483 26.616 64.1683 26.232L64.9363 25.048C65.2776 25.304 65.6243 25.4853 65.9763 25.592C66.3389 25.6987 66.6856 25.752 67.0163 25.752C67.3363 25.752 67.6243 25.7093 67.8802 25.624C68.1363 25.528 68.3389 25.4 68.4883 25.24C68.6376 25.0693 68.7123 24.8667 68.7123 24.632C68.7123 24.2907 68.5789 24.04 68.3123 23.88C68.0456 23.72 67.6456 23.64 67.1123 23.64H65.9283V22.264H66.9523C67.4536 22.264 67.8216 22.184 68.0563 22.024C68.3016 21.8533 68.4243 21.624 68.4243 21.336C68.4243 21.016 68.2963 20.776 68.0403 20.616C67.7949 20.456 67.4643 20.376 67.0483 20.376C66.6536 20.376 66.2963 20.424 65.9763 20.52C65.6669 20.616 65.3576 20.7707 65.0483 20.984L64.3283 19.784C64.7336 19.5173 65.1656 19.3147 65.6243 19.176C66.0936 19.0267 66.6056 18.952 67.1603 18.952C67.7043 18.952 68.2056 19.032 68.6643 19.192C69.1336 19.3413 69.5069 19.576 69.7843 19.896C70.0723 20.216 70.2163 20.6213 70.2163 21.112C70.2163 21.4747 70.1096 21.816 69.8963 22.136C69.6936 22.456 69.3736 22.6907 68.9363 22.84V22.904C69.4163 23.0107 69.8003 23.2187 70.0883 23.528C70.3869 23.8267 70.5363 24.248 70.5363 24.792C70.5363 25.304 70.3763 25.7413 70.0563 26.104C69.7363 26.456 69.3203 26.728 68.8083 26.92C68.2963 27.1013 67.7523 27.192 67.1763 27.192ZM73.1254 27V29.752H71.5254L71.3494 26.728V25.528H79.7814V26.728L79.5894 29.752H78.0054V27H73.1254ZM76.7414 26.456V20.6H74.6454L74.4054 22.84C74.32 23.5333 74.2027 24.1147 74.0534 24.584C73.9147 25.0533 73.7387 25.432 73.5254 25.72C73.3227 26.008 73.0934 26.2213 72.8374 26.36C72.5814 26.4987 72.3147 26.584 72.0374 26.616L71.7974 25.528C71.9254 25.464 72.048 25.3413 72.1654 25.16C72.2934 24.9787 72.4054 24.68 72.5014 24.264C72.608 23.8373 72.7094 23.2293 72.8054 22.44L73.1894 19.144H78.5814V26.456H76.7414ZM83.2126 27.192C82.754 27.192 82.3486 27.096 81.9966 26.904C81.6446 26.712 81.3673 26.4453 81.1646 26.104C80.9726 25.752 80.8766 25.3467 80.8766 24.888C80.8766 24.0027 81.2446 23.336 81.9806 22.888C82.7273 22.4293 83.906 22.1147 85.5166 21.944C85.506 21.6773 85.4526 21.432 85.3566 21.208C85.2713 20.984 85.122 20.808 84.9086 20.68C84.706 20.5413 84.4286 20.472 84.0766 20.472C83.6926 20.472 83.314 20.5413 82.9406 20.68C82.578 20.8187 82.2206 20.9947 81.8686 21.208L81.1966 19.96C81.4846 19.7787 81.7993 19.6133 82.1406 19.464C82.482 19.304 82.8446 19.1813 83.2286 19.096C83.6126 19 84.0126 18.952 84.4286 18.952C85.0793 18.952 85.618 19.0853 86.0446 19.352C86.482 19.608 86.8073 19.992 87.0206 20.504C87.2446 21.0053 87.3566 21.624 87.3566 22.36V27H85.8366L85.7086 26.136H85.6446C85.282 26.4347 84.9033 26.6853 84.5086 26.888C84.114 27.0907 83.682 27.192 83.2126 27.192ZM83.7886 25.688C84.1086 25.688 84.402 25.624 84.6686 25.496C84.946 25.3573 85.2286 25.1547 85.5166 24.888V23.224C84.802 23.3093 84.2366 23.4213 83.8206 23.56C83.4046 23.6987 83.106 23.8693 82.9246 24.072C82.754 24.264 82.6686 24.4933 82.6686 24.76C82.6686 25.0907 82.7753 25.3307 82.9886 25.48C83.202 25.6187 83.4686 25.688 83.7886 25.688ZM91.0206 27V20.6H88.5566V19.144H95.3406V20.6H92.8766V27H91.0206ZM96.918 27V19.144H98.758V21.832H99.942C100.571 21.832 101.131 21.9173 101.622 22.088C102.113 22.2587 102.497 22.5307 102.774 22.904C103.051 23.2773 103.19 23.7733 103.19 24.392C103.19 25.0213 103.051 25.528 102.774 25.912C102.497 26.296 102.113 26.5733 101.622 26.744C101.131 26.9147 100.571 27 99.942 27H96.918ZM98.758 25.576H99.814C100.358 25.576 100.758 25.48 101.014 25.288C101.281 25.0853 101.414 24.7813 101.414 24.376C101.414 23.9813 101.281 23.6933 101.014 23.512C100.758 23.32 100.358 23.224 99.814 23.224H98.758V25.576Z" fill="white"/>
<path d="M49.12 26.568L48.6169 27.4323L48.6225 27.4355L49.12 26.568ZM47.408 24.744L46.5183 25.2006L46.5219 25.2076L46.5256 25.2146L47.408 24.744ZM47.152 19.512L48.0914 19.8549L48.0931 19.8502L47.152 19.512ZM48.176 17.784L47.4526 17.0935L47.4444 17.1023L48.176 17.784ZM53.328 16.744L52.8661 17.6309L52.8734 17.6347L52.8808 17.6384L53.328 16.744ZM54.592 17.672L55.3452 18.3298L55.9322 17.6576L55.331 16.9982L54.592 17.672ZM53.6 18.808L52.8792 19.5011L53.6355 20.2877L54.3532 19.4658L53.6 18.808ZM52.704 18.184L52.2811 19.0902L52.299 19.0985L52.3173 19.1062L52.704 18.184ZM50.112 18.424L49.5438 17.601L49.5345 17.6076L50.112 18.424ZM49.072 19.736L48.161 19.3235L48.161 19.3235L49.072 19.736ZM49.056 23.816L48.136 24.2079L48.1387 24.2141L49.056 23.816ZM50.096 25.128L49.5278 25.9509L49.5345 25.9555L49.5413 25.9601L50.096 25.128ZM52.864 25.304L52.406 24.415L52.406 24.415L52.864 25.304ZM53.824 24.584L54.584 23.9341L53.8685 23.0973L53.1042 23.8899L53.824 24.584ZM54.768 25.688L55.5226 26.3442L56.0884 25.6935L55.528 25.0381L54.768 25.688ZM53.328 26.808L53.7607 27.7095L53.7607 27.7095L53.328 26.808ZM51.536 26.192C50.8146 26.192 50.1824 26.0245 49.6175 25.7005L48.6225 27.4355C49.5082 27.9435 50.4868 28.192 51.536 28.192V26.192ZM49.6231 25.7038C49.0842 25.3901 48.6383 24.9259 48.2904 24.2734L46.5256 25.2146C47.031 26.1621 47.7264 26.9139 48.6169 27.4322L49.6231 25.7038ZM48.2977 24.2874C47.9708 23.6504 47.784 22.8341 47.784 21.8H45.784C45.784 23.0699 46.0132 24.2162 46.5183 25.2006L48.2977 24.2874ZM47.784 21.8C47.784 21.0417 47.893 20.3981 48.0914 19.8549L46.2126 19.1691C45.9203 19.9699 45.784 20.8517 45.784 21.8H47.784ZM48.0931 19.8502C48.2986 19.2784 48.574 18.8238 48.9076 18.4657L47.4444 17.1023C46.9033 17.6829 46.4961 18.3803 46.2109 19.1738L48.0931 19.8502ZM48.8994 18.4745C49.2571 18.0997 49.6574 17.8222 50.1039 17.632L49.3201 15.792C48.6146 16.0925 47.9909 16.5296 47.4526 17.0935L48.8994 18.4745ZM50.1039 17.632C50.5491 17.4424 51.0336 17.344 51.568 17.344V15.344C50.7797 15.344 50.0269 15.4909 49.3201 15.792L50.1039 17.632ZM51.568 17.344C52.0921 17.344 52.5162 17.4487 52.8661 17.6309L53.7899 15.8571C53.1158 15.506 52.3666 15.344 51.568 15.344V17.344ZM52.8808 17.6384C53.3008 17.8484 53.6178 18.0877 53.853 18.3458L55.331 16.9982C54.9049 16.5309 54.3792 16.1516 53.7752 15.8496L52.8808 17.6384ZM53.8388 17.0142L52.8468 18.1502L54.3532 19.4658L55.3452 18.3298L53.8388 17.0142ZM54.3208 18.1149C53.9666 17.7465 53.5562 17.457 53.0907 17.2618L52.3173 19.1062C52.5131 19.1883 52.7001 19.3149 52.8792 19.5011L54.3208 18.1149ZM53.1269 17.2778C52.6562 17.0582 52.1459 16.96 51.616 16.96V18.96C51.8968 18.96 52.1118 19.0112 52.2811 19.0902L53.1269 17.2778ZM51.616 16.96C50.8624 16.96 50.1622 17.1741 49.5438 17.6011L50.6802 19.2469C50.9578 19.0552 51.2602 18.96 51.616 18.96V16.96ZM49.5345 17.6076C48.9305 18.0348 48.4786 18.6223 48.161 19.3235L49.983 20.1485C50.1774 19.7191 50.4189 19.4318 50.6895 19.2404L49.5345 17.6076ZM48.161 19.3235C47.8334 20.047 47.688 20.8662 47.688 21.752H49.688C49.688 21.0805 49.7986 20.5557 49.983 20.1485L48.161 19.3235ZM47.688 21.752C47.688 22.6507 47.8254 23.4787 48.136 24.2079L49.976 23.4241C49.7959 23.0013 49.688 22.4533 49.688 21.752H47.688ZM48.1387 24.2141C48.4483 24.9277 48.9064 25.5219 49.5278 25.9509L50.6642 24.3051C50.3896 24.1155 50.1544 23.835 49.9733 23.4179L48.1387 24.2141ZM49.5413 25.9601C50.1713 26.38 50.8917 26.576 51.664 26.576V24.576C51.2417 24.576 50.9167 24.4733 50.6507 24.2959L49.5413 25.9601ZM51.664 26.576C52.2502 26.576 52.8107 26.4564 53.322 26.193L52.406 24.415C52.2133 24.5143 51.9738 24.576 51.664 24.576V26.576ZM53.322 26.193C53.7759 25.9591 54.1835 25.6519 54.5438 25.2781L53.1042 23.8899C52.8885 24.1135 52.6561 24.2862 52.406 24.415L53.322 26.193ZM53.064 25.2339L54.008 26.3379L55.528 25.0381L54.584 23.9341L53.064 25.2339ZM54.0134 25.0318C53.6673 25.4299 53.294 25.7151 52.8953 25.9065L53.7607 27.7095C54.4286 27.3889 55.0154 26.9274 55.5226 26.3442L54.0134 25.0318ZM52.8953 25.9065C52.5122 26.0904 52.0653 26.192 51.536 26.192V28.192C52.3293 28.192 53.0772 28.0376 53.7607 27.7095L52.8953 25.9065ZM57.7788 26.712L57.2739 27.5752L57.28 27.5788L57.2862 27.5823L57.7788 26.712ZM56.4028 25.304L55.5336 25.7985L55.5373 25.805L56.4028 25.304ZM56.4028 20.856L57.2682 21.3571L57.2719 21.3505L56.4028 20.856ZM57.7788 19.448L58.2713 20.3183L58.2775 20.3148L58.2836 20.3112L57.7788 19.448ZM61.4428 19.448L60.9379 20.3112L60.944 20.3148L60.9502 20.3183L61.4428 19.448ZM62.8188 20.856L61.9496 21.3505L61.9533 21.357L62.8188 20.856ZM62.8188 25.304L63.6842 25.8051L63.6879 25.7985L62.8188 25.304ZM61.4428 26.712L61.9353 27.5823L61.9415 27.5788L61.9476 27.5752L61.4428 26.712ZM60.5948 25.368L61.2045 26.1606L61.2045 26.1606L60.5948 25.368ZM61.2348 21.704L62.17 21.3501L62.17 21.3501L61.2348 21.704ZM60.5948 20.792L59.9664 21.5699L59.9756 21.5774L59.985 21.5846L60.5948 20.792ZM58.6108 20.792L59.2355 21.5729L59.2391 21.5699L58.6108 20.792ZM57.9868 21.704L57.0515 21.3501L57.0515 21.3501L57.9868 21.704ZM58.6108 25.368L57.9861 26.1489L57.9935 26.1548L58.001 26.1606L58.6108 25.368ZM59.6028 26.192C59.1244 26.192 58.6862 26.0766 58.2713 25.8417L57.2862 27.5823C58.002 27.9874 58.7797 28.192 59.6028 28.192V26.192ZM58.2836 25.8488C57.8787 25.6119 57.5399 25.2723 57.2682 24.803L55.5373 25.805C55.9696 26.5517 56.5482 27.1507 57.2739 27.5752L58.2836 25.8488ZM57.2719 24.8095C57.0222 24.3707 56.8748 23.8075 56.8748 23.08H54.8748C54.8748 24.0805 55.0793 25 55.5336 25.7985L57.2719 24.8095ZM56.8748 23.08C56.8748 22.3386 57.0235 21.7797 57.2682 21.357L55.5373 20.355C55.078 21.1483 54.8748 22.072 54.8748 23.08H56.8748ZM57.2719 21.3505C57.5434 20.8733 57.878 20.5409 58.2713 20.3183L57.2862 18.5777C56.5489 18.9951 55.9661 19.6014 55.5336 20.3615L57.2719 21.3505ZM58.2836 20.3112C58.6969 20.0695 59.1308 19.952 59.6028 19.952V17.952C58.7734 17.952 57.9913 18.1652 57.2739 18.5848L58.2836 20.3112ZM59.6028 19.952C60.0885 19.952 60.5273 20.071 60.9379 20.3112L61.9476 18.5848C61.2276 18.1636 60.4397 17.952 59.6028 17.952V19.952ZM60.9502 20.3183C61.3435 20.5409 61.6781 20.8733 61.9496 21.3505L63.6879 20.3615C63.2554 19.6014 62.6726 18.9951 61.9353 18.5777L60.9502 20.3183ZM61.9533 21.357C62.198 21.7797 62.3468 22.3386 62.3468 23.08H64.3468C64.3468 22.072 64.1435 21.1483 63.6842 20.355L61.9533 21.357ZM62.3468 23.08C62.3468 23.8075 62.1993 24.3707 61.9496 24.8095L63.6879 25.7985C64.1422 25 64.3468 24.0805 64.3468 23.08H62.3468ZM61.9533 24.803C61.6816 25.2723 61.3428 25.6119 60.9379 25.8488L61.9476 27.5752C62.6733 27.1507 63.2519 26.5517 63.6842 25.805L61.9533 24.803ZM60.9502 25.8417C60.5379 26.0751 60.0947 26.192 59.6028 26.192V28.192C60.4335 28.192 61.217 27.9889 61.9353 27.5823L60.9502 25.8417ZM59.6028 26.688C60.1845 26.688 60.7351 26.5217 61.2045 26.1606L59.985 24.5754C59.8997 24.641 59.789 24.688 59.6028 24.688V26.688ZM61.2045 26.1606C61.6567 25.8127 61.9686 25.3422 62.17 24.8099L60.2995 24.1021C60.2022 24.3591 60.0875 24.4966 59.985 24.5754L61.2045 26.1606ZM62.17 24.8099C62.371 24.2788 62.4588 23.6957 62.4588 23.08H60.4588C60.4588 23.5096 60.3972 23.8439 60.2995 24.1021L62.17 24.8099ZM62.4588 23.08C62.4588 22.4643 62.371 21.8812 62.17 21.3501L60.2995 22.0579C60.3972 22.3161 60.4588 22.6504 60.4588 23.08H62.4588ZM62.17 21.3501C61.9686 20.8178 61.6567 20.3473 61.2045 19.9994L59.985 21.5846C60.0875 21.6634 60.2022 21.8009 60.2995 22.0579L62.17 21.3501ZM61.2231 20.0141C60.7537 19.6349 60.1965 19.456 59.6028 19.456V21.456C59.777 21.456 59.8811 21.5011 59.9664 21.5699L61.2231 20.0141ZM59.6028 19.456C59.009 19.456 58.4518 19.6349 57.9824 20.0141L59.2391 21.5699C59.3244 21.5011 59.4285 21.456 59.6028 21.456V19.456ZM57.9861 20.0111C57.55 20.36 57.2494 20.8271 57.0515 21.3501L58.922 22.0579C59.0228 21.7916 59.1382 21.6507 59.2354 21.5729L57.9861 20.0111ZM57.0515 21.3501C56.8505 21.8812 56.7628 22.4643 56.7628 23.08H58.7628C58.7628 22.6504 58.8243 22.3161 58.922 22.0579L57.0515 21.3501ZM56.7628 23.08C56.7628 23.6957 56.8505 24.2788 57.0515 24.8099L58.922 24.1021C58.8243 23.8439 58.7628 23.5096 58.7628 23.08H56.7628ZM57.0515 24.8099C57.2494 25.3329 57.55 25.8 57.9861 26.1489L59.2354 24.5871C59.1382 24.5093 59.0228 24.3684 58.922 24.1021L57.0515 24.8099ZM58.001 26.1606C58.4704 26.5217 59.021 26.688 59.6028 26.688V24.688C59.4165 24.688 59.3058 24.641 59.2205 24.5754L58.001 26.1606ZM64.1683 26.232L63.3293 25.6878L62.8366 26.4473L63.5436 27.0129L64.1683 26.232ZM64.9363 25.048L65.5363 24.248L64.6798 23.6057L64.0973 24.5038L64.9363 25.048ZM65.9763 25.592L65.6862 26.5491L65.6941 26.5514L65.9763 25.592ZM67.8802 25.624L68.1965 26.5727L68.214 26.5668L68.2314 26.5603L67.8802 25.624ZM68.4883 25.24L69.2193 25.9223L69.2303 25.9106L69.2408 25.8985L68.4883 25.24ZM65.9283 23.64H64.9283V24.64H65.9283V23.64ZM65.9283 22.264V21.264H64.9283V22.264H65.9283ZM68.0563 22.024L68.6196 22.8503L68.6273 22.8449L68.0563 22.024ZM68.0403 20.616L67.494 21.4536L67.5021 21.4589L67.5103 21.464L68.0403 20.616ZM65.9763 20.52L65.6889 19.5621L65.6799 19.5649L65.9763 20.52ZM65.0483 20.984L64.1908 21.4985L64.7389 22.4121L65.616 21.8072L65.0483 20.984ZM64.3283 19.784L63.7786 18.9486L62.9772 19.4759L63.4708 20.2985L64.3283 19.784ZM65.6243 19.176L65.9136 20.1332L65.9206 20.1311L65.9275 20.1289L65.6243 19.176ZM68.6643 19.192L68.3349 20.1362L68.3479 20.1407L68.361 20.1449L68.6643 19.192ZM69.7843 19.896L69.0286 20.5509L69.0347 20.558L69.041 20.565L69.7843 19.896ZM69.8963 22.136L69.0642 21.5813L69.0577 21.591L69.0514 21.6009L69.8963 22.136ZM68.9363 22.84L68.6131 21.8936L67.9363 22.1248V22.84H68.9363ZM68.9363 22.904H67.9363V23.7062L68.7193 23.8802L68.9363 22.904ZM70.0883 23.528L69.3564 24.2094L69.3685 24.2225L69.3811 24.2351L70.0883 23.528ZM70.0563 26.104L70.7962 26.7767L70.8012 26.7712L70.8061 26.7656L70.0563 26.104ZM68.8083 26.92L69.1421 27.8626L69.1508 27.8596L69.1594 27.8563L68.8083 26.92ZM67.1763 26.192C66.7362 26.192 66.3073 26.1382 65.8876 26.0311L65.3929 27.9689C65.9759 28.1178 66.571 28.192 67.1763 28.192V26.192ZM65.8876 26.0311C65.5474 25.9442 65.1825 25.7628 64.7929 25.4511L63.5436 27.0129C64.114 27.4692 64.7304 27.7998 65.3929 27.9689L65.8876 26.0311ZM65.0072 26.7762L65.7752 25.5922L64.0973 24.5038L63.3293 25.6878L65.0072 26.7762ZM64.3363 25.848C64.7563 26.163 65.2062 26.4036 65.6862 26.549L66.2663 24.635C66.0423 24.5671 65.7989 24.445 65.5363 24.248L64.3363 25.848ZM65.6941 26.5514C66.1355 26.6812 66.5775 26.752 67.0163 26.752V24.752C66.7936 24.752 66.5423 24.7161 66.2584 24.6326L65.6941 26.5514ZM67.0163 26.752C67.4243 26.752 67.8216 26.6976 68.1965 26.5727L67.564 24.6753C67.4269 24.721 67.2482 24.752 67.0163 24.752V26.752ZM68.2314 26.5603C68.5967 26.4233 68.9417 26.2198 69.2193 25.9223L67.7572 24.5577C67.7362 24.5802 67.6758 24.6327 67.5291 24.6877L68.2314 26.5603ZM69.2408 25.8985C69.5556 25.5387 69.7123 25.0997 69.7123 24.632H67.7123C67.7123 24.6416 67.7111 24.6329 67.7179 24.6143C67.721 24.6058 67.7248 24.598 67.7288 24.5915C67.7326 24.5851 67.7354 24.5818 67.7357 24.5815L69.2408 25.8985ZM69.7123 24.632C69.7123 23.9807 69.4284 23.3835 68.8267 23.0225L67.7978 24.7375C67.7968 24.7369 67.7859 24.7301 67.7709 24.7147C67.7555 24.699 67.7409 24.6793 67.7294 24.6576C67.705 24.6119 67.7123 24.5922 67.7123 24.632H69.7123ZM68.8267 23.0225C68.3297 22.7243 67.7129 22.64 67.1123 22.64V24.64C67.5782 24.64 67.7615 24.7157 67.7978 24.7375L68.8267 23.0225ZM67.1123 22.64H65.9283V24.64H67.1123V22.64ZM66.9283 23.64V22.264H64.9283V23.64H66.9283ZM65.9283 23.264H66.9523V21.264H65.9283V23.264ZM66.9523 23.264C67.5195 23.264 68.1344 23.1811 68.6196 22.8502L67.4929 21.1978C67.5102 21.186 67.489 21.2057 67.3918 21.2268C67.2962 21.2476 67.1534 21.264 66.9523 21.264V23.264ZM68.6273 22.8449C69.1293 22.4957 69.4243 21.9658 69.4243 21.336H67.4243C67.4243 21.3367 67.4242 21.3272 67.4282 21.3103C67.4323 21.2929 67.4396 21.2727 67.4505 21.2523C67.4741 21.2082 67.4976 21.1945 67.4852 21.2031L68.6273 22.8449ZM69.4243 21.336C69.4243 20.6962 69.1392 20.1236 68.5702 19.768L67.5103 21.464C67.5104 21.4641 67.5008 21.4581 67.4869 21.4435C67.4725 21.4286 67.4579 21.4092 67.4459 21.3866C67.4201 21.3382 67.4243 21.3112 67.4243 21.336H69.4243ZM68.5865 19.7784C68.1238 19.4766 67.5803 19.376 67.0483 19.376V21.376C67.3482 21.376 67.466 21.4354 67.494 21.4536L68.5865 19.7784ZM67.0483 19.376C66.5734 19.376 66.1172 19.4337 65.6889 19.5622L66.2636 21.4778C66.4753 21.4143 66.7338 21.376 67.0483 21.376V19.376ZM65.6799 19.5649C65.2599 19.6953 64.8601 19.899 64.4805 20.1608L65.616 21.8072C65.8551 21.6423 66.0739 21.5367 66.2726 21.4751L65.6799 19.5649ZM65.9057 20.4695L65.1857 19.2695L63.4708 20.2985L64.1908 21.4985L65.9057 20.4695ZM64.8779 20.6194C65.2038 20.405 65.5483 20.2437 65.9136 20.1332L65.3349 18.2188C64.7829 18.3857 64.2634 18.6297 63.7786 18.9486L64.8779 20.6194ZM65.9275 20.1289C66.2872 20.0144 66.6957 19.952 67.1603 19.952V17.952C66.5155 17.952 65.8999 18.0389 65.321 18.2231L65.9275 20.1289ZM67.1603 19.952C67.6054 19.952 67.994 20.0173 68.3349 20.1362L68.9936 18.2478C68.4172 18.0467 67.8031 17.952 67.1603 17.952V19.952ZM68.361 20.1449C68.6841 20.2477 68.8903 20.3914 69.0286 20.5509L70.5399 19.2411C70.1236 18.7606 69.5831 18.435 68.9675 18.2391L68.361 20.1449ZM69.041 20.565C69.1405 20.6756 69.2163 20.8314 69.2163 21.112H71.2163C71.2163 20.4112 71.004 19.7564 70.5275 19.227L69.041 20.565ZM69.2163 21.112C69.2163 21.265 69.175 21.4151 69.0642 21.5813L70.7283 22.6907C71.0442 22.2169 71.2163 21.6843 71.2163 21.112H69.2163ZM69.0514 21.6009C68.9958 21.6888 68.8837 21.8012 68.6131 21.8936L69.2594 23.7863C69.8634 23.5801 70.3914 23.2232 70.7411 22.6711L69.0514 21.6009ZM67.9363 22.84V22.904H69.9363V22.84H67.9363ZM68.7193 23.8802C69.035 23.9503 69.2277 24.0712 69.3564 24.2094L70.8201 22.8466C70.3728 22.3661 69.7975 22.071 69.1532 21.9278L68.7193 23.8802ZM69.3811 24.2351C69.4425 24.2965 69.5363 24.4334 69.5363 24.792H71.5363C71.5363 24.0626 71.3313 23.3569 70.7954 22.8209L69.3811 24.2351ZM69.5363 24.792C69.5363 25.0759 69.4552 25.2738 69.3064 25.4424L70.8061 26.7656C71.2973 26.2089 71.5363 25.5321 71.5363 24.792H69.5363ZM69.3163 25.4313C69.1181 25.6494 68.8428 25.8391 68.4571 25.9837L69.1594 27.8563C69.7977 27.6169 70.3544 27.2626 70.7962 26.7767L69.3163 25.4313ZM68.4744 25.9774C68.0759 26.1185 67.6454 26.192 67.1763 26.192V28.192C67.8591 28.192 68.5166 28.0842 69.1421 27.8626L68.4744 25.9774ZM73.1254 27V26H72.1254V27H73.1254ZM73.1254 29.752V30.752H74.1254V29.752H73.1254ZM71.5254 29.752L70.5271 29.8101L70.5819 30.752H71.5254V29.752ZM71.3494 26.728H70.3494V26.7571L70.3511 26.7861L71.3494 26.728ZM71.3494 25.528V24.528H70.3494V25.528H71.3494ZM79.7814 25.528H80.7814V24.528H79.7814V25.528ZM79.7814 26.728L80.7794 26.7914L80.7814 26.7597V26.728H79.7814ZM79.5894 29.752V30.752H80.5279L80.5874 29.8154L79.5894 29.752ZM78.0054 29.752H77.0054V30.752H78.0054V29.752ZM78.0054 27H79.0054V26H78.0054V27ZM76.7414 26.456H75.7414V27.456H76.7414V26.456ZM76.7414 20.6H77.7414V19.6H76.7414V20.6ZM74.6454 20.6V19.6H73.7468L73.6511 20.4935L74.6454 20.6ZM74.4054 22.84L75.3979 22.9622L75.3988 22.9544L75.3997 22.9465L74.4054 22.84ZM74.0534 24.584L73.1004 24.2808L73.0973 24.2907L73.0944 24.3007L74.0534 24.584ZM73.5254 25.72L72.7218 25.1248L72.7146 25.1346L72.7076 25.1445L73.5254 25.72ZM72.8374 26.36L72.3611 25.4807L72.3611 25.4807L72.8374 26.36ZM72.0374 26.616L71.0609 26.8314L71.2553 27.7129L72.152 27.6094L72.0374 26.616ZM71.7974 25.528L71.3502 24.6336L70.6529 24.9822L70.8209 25.7434L71.7974 25.528ZM72.1654 25.16L71.3484 24.5833L71.3368 24.5998L71.3258 24.6167L72.1654 25.16ZM72.5014 24.264L71.5312 24.0215L71.529 24.0303L71.527 24.0391L72.5014 24.264ZM72.8054 22.44L73.7981 22.5607L73.7987 22.5557L72.8054 22.44ZM73.1894 19.144V18.144H72.2991L72.1961 19.0283L73.1894 19.144ZM78.5814 19.144H79.5814V18.144H78.5814V19.144ZM78.5814 26.456V27.456H79.5814V26.456H78.5814ZM72.1254 27V29.752H74.1254V27H72.1254ZM73.1254 28.752H71.5254V30.752H73.1254V28.752ZM72.5237 29.6939L72.3477 26.6699L70.3511 26.7861L70.5271 29.8101L72.5237 29.6939ZM72.3494 26.728V25.528H70.3494V26.728H72.3494ZM71.3494 26.528H79.7814V24.528H71.3494V26.528ZM78.7814 25.528V26.728H80.7814V25.528H78.7814ZM78.7834 26.6646L78.5914 29.6886L80.5874 29.8154L80.7794 26.7914L78.7834 26.6646ZM79.5894 28.752H78.0054V30.752H79.5894V28.752ZM79.0054 29.752V27H77.0054V29.752H79.0054ZM78.0054 26H73.1254V28H78.0054V26ZM77.7414 26.456V20.6H75.7414V26.456H77.7414ZM76.7414 19.6H74.6454V21.6H76.7414V19.6ZM73.6511 20.4935L73.4111 22.7335L75.3997 22.9465L75.6397 20.7065L73.6511 20.4935ZM73.4129 22.7178C73.3322 23.373 73.225 23.8892 73.1004 24.2808L75.0063 24.8872C75.1804 24.3401 75.3079 23.6937 75.3979 22.9622L73.4129 22.7178ZM73.0944 24.3007C72.9776 24.696 72.8452 24.9583 72.7218 25.1248L74.3289 26.3152C74.6323 25.9057 74.8519 25.4107 75.0124 24.8673L73.0944 24.3007ZM72.7076 25.1445C72.5754 25.3323 72.4558 25.4294 72.3611 25.4807L73.3137 27.2393C73.731 27.0133 74.07 26.6837 74.3432 26.2955L72.7076 25.1445ZM72.3611 25.4807C72.2124 25.5613 72.0679 25.6058 71.9228 25.6226L72.152 27.6094C72.5615 27.5622 72.9504 27.4361 73.3137 27.2393L72.3611 25.4807ZM73.0139 26.4006L72.7739 25.3126L70.8209 25.7434L71.0609 26.8314L73.0139 26.4006ZM72.2446 26.4224C72.5938 26.2478 72.8363 25.9639 73.0049 25.7033L71.3258 24.6167C71.3116 24.6387 71.3 24.6546 71.2915 24.6654C71.2873 24.6707 71.284 24.6746 71.2817 24.6771C71.2794 24.6797 71.2783 24.6809 71.2783 24.6809C71.2783 24.6809 71.2796 24.6795 71.2823 24.6772C71.2851 24.6748 71.2893 24.6713 71.2951 24.667C71.3067 24.6583 71.325 24.6462 71.3502 24.6336L72.2446 26.4224ZM72.9823 25.7367C73.226 25.3915 73.3725 24.9363 73.4758 24.4889L71.527 24.0391C71.4858 24.2176 71.4454 24.3518 71.409 24.4489C71.3712 24.5499 71.3469 24.5855 71.3484 24.5833L72.9823 25.7367ZM73.4715 24.5065C73.5932 24.02 73.7004 23.364 73.7981 22.5607L71.8127 22.3193C71.7184 23.0947 71.6229 23.6547 71.5312 24.0215L73.4715 24.5065ZM73.7987 22.5557L74.1827 19.2597L72.1961 19.0283L71.8121 22.3243L73.7987 22.5557ZM73.1894 20.144H78.5814V18.144H73.1894V20.144ZM77.5814 19.144V26.456H79.5814V19.144H77.5814ZM78.5814 25.456H76.7414V27.456H78.5814V25.456ZM81.1646 26.104L80.2867 26.5829L80.2955 26.5989L80.3048 26.6145L81.1646 26.104ZM81.9806 22.888L82.5006 23.7422L82.504 23.7401L81.9806 22.888ZM85.5166 21.944L85.622 22.9384L86.5533 22.8398L86.5158 21.904L85.5166 21.944ZM85.3566 21.208L84.4221 21.564L84.4294 21.5831L84.4375 21.6019L85.3566 21.208ZM84.9086 20.68L84.3439 21.5053L84.3686 21.5221L84.3941 21.5375L84.9086 20.68ZM82.9406 20.68L82.5924 19.7425L82.5835 19.7459L82.9406 20.68ZM81.8686 21.208L80.9882 21.6821L81.487 22.6086L82.3869 22.0632L81.8686 21.208ZM81.1966 19.96L80.6638 19.1138L79.8732 19.6115L80.3162 20.4341L81.1966 19.96ZM82.1406 19.464L82.5414 20.3802L82.5533 20.375L82.5651 20.3695L82.1406 19.464ZM83.2286 19.096L83.4456 20.0722L83.4584 20.0693L83.4712 20.0661L83.2286 19.096ZM86.0446 19.352L85.5146 20.2L85.5269 20.2077L85.5394 20.215L86.0446 19.352ZM87.0206 20.504L86.0975 20.8886L86.1024 20.9003L86.1076 20.9119L87.0206 20.504ZM87.3566 27V28H88.3566V27H87.3566ZM85.8366 27L84.8474 27.1465L84.9739 28H85.8366V27ZM85.7086 26.136L86.6978 25.9895L86.5714 25.136H85.7086V26.136ZM85.6446 26.136V25.136H85.2859L85.0089 25.3641L85.6446 26.136ZM84.5086 26.888L84.0518 25.9984L84.0518 25.9984L84.5086 26.888ZM84.6686 25.496L85.1014 26.3975L85.1086 26.394L85.1158 26.3904L84.6686 25.496ZM85.5166 24.888L86.196 25.6218L86.5166 25.3249V24.888H85.5166ZM85.5166 23.224H86.5166V22.0975L85.3981 22.2311L85.5166 23.224ZM83.8206 23.56L84.1369 24.5087L84.1369 24.5087L83.8206 23.56ZM82.9246 24.072L82.1794 23.4052L82.1772 23.4076L82.9246 24.072ZM82.9886 25.48L82.4152 26.2992L82.4292 26.3091L82.4436 26.3184L82.9886 25.48ZM83.2126 26.192C82.8969 26.192 82.6606 26.1271 82.4755 26.0261L81.5178 27.7819C82.0366 28.0649 82.611 28.192 83.2126 28.192V26.192ZM82.4755 26.0261C82.2795 25.9192 82.1345 25.7787 82.0245 25.5935L80.3048 26.6145C80.6001 27.1119 81.0098 27.5048 81.5178 27.7819L82.4755 26.0261ZM82.0425 25.6251C81.9415 25.44 81.8766 25.2037 81.8766 24.888H79.8766C79.8766 25.4896 80.0037 26.064 80.2867 26.5829L82.0425 25.6251ZM81.8766 24.888C81.8766 24.3399 82.0726 24.0027 82.5006 23.7422L81.4607 22.0338C80.4167 22.6693 79.8766 23.6654 79.8766 24.888H81.8766ZM82.504 23.7401C83.057 23.4004 84.0545 23.1045 85.622 22.9384L85.4113 20.9496C83.7574 21.1248 82.3976 21.4583 81.4572 22.0359L82.504 23.7401ZM86.5158 21.904C86.5007 21.5271 86.4242 21.1604 86.2758 20.8141L84.4375 21.6019C84.4811 21.7036 84.5112 21.8276 84.5174 21.984L86.5158 21.904ZM86.2911 20.852C86.1228 20.4101 85.8209 20.0611 85.4231 19.8225L84.3941 21.5375C84.4048 21.5439 84.4111 21.5487 84.4142 21.5514C84.4158 21.5527 84.4169 21.5537 84.4174 21.5542C84.4177 21.5545 84.4178 21.5547 84.418 21.5548C84.4181 21.5549 84.4181 21.555 84.4181 21.555C84.4181 21.555 84.4181 21.555 84.4181 21.5549C84.418 21.5548 84.418 21.5548 84.4179 21.5547C84.4179 21.5546 84.4179 21.5547 84.4181 21.555C84.4184 21.5555 84.4199 21.5582 84.4221 21.564L86.2911 20.852ZM85.4733 19.8547C85.0466 19.5627 84.5465 19.472 84.0766 19.472V21.472C84.3107 21.472 84.3653 21.5199 84.3439 21.5053L85.4733 19.8547ZM84.0766 19.472C83.5694 19.472 83.073 19.5641 82.5924 19.7426L83.2888 21.6174C83.5549 21.5186 83.8159 21.472 84.0766 21.472V19.472ZM82.5835 19.7459C82.1616 19.9073 81.7505 20.1103 81.3503 20.3528L82.3869 22.0632C82.6907 21.8791 82.9943 21.7301 83.2978 21.6141L82.5835 19.7459ZM82.7491 20.7339L82.0771 19.4859L80.3162 20.4341L80.9882 21.6821L82.7491 20.7339ZM81.7294 20.8062C81.9715 20.6538 82.2415 20.5114 82.5414 20.3802L81.7398 18.5478C81.357 18.7153 80.9978 18.9035 80.6638 19.1138L81.7294 20.8062ZM82.5651 20.3695C82.8372 20.2419 83.13 20.1423 83.4456 20.0722L83.0117 18.1198C82.5592 18.2204 82.1267 18.3661 81.7162 18.5585L82.5651 20.3695ZM83.4712 20.0661C83.7719 19.991 84.0902 19.952 84.4286 19.952V17.952C83.935 17.952 83.4533 18.009 82.9861 18.1259L83.4712 20.0661ZM84.4286 19.952C84.9459 19.952 85.2872 20.0579 85.5146 20.2L86.5746 18.504C85.9487 18.1128 85.2126 17.952 84.4286 17.952V19.952ZM85.5394 20.215C85.7713 20.3507 85.9595 20.5572 86.0975 20.8886L87.9437 20.1194C87.6551 19.4268 87.1927 18.8653 86.5498 18.489L85.5394 20.215ZM86.1076 20.9119C86.2583 21.2491 86.3566 21.7192 86.3566 22.36H88.3566C88.3566 21.5287 88.231 20.7615 87.9336 20.0961L86.1076 20.9119ZM86.3566 22.36V27H88.3566V22.36H86.3566ZM87.3566 26H85.8366V28H87.3566V26ZM86.8258 26.8535L86.6978 25.9895L84.7194 26.2825L84.8474 27.1465L86.8258 26.8535ZM85.7086 25.136H85.6446V27.136H85.7086V25.136ZM85.0089 25.3641C84.6983 25.6199 84.3792 25.8303 84.0518 25.9984L84.9654 27.7776C85.4274 27.5403 85.8657 27.2494 86.2803 26.9079L85.0089 25.3641ZM84.0518 25.9984C83.8067 26.1243 83.5325 26.192 83.2126 26.192V28.192C83.8314 28.192 84.4213 28.057 84.9654 27.7776L84.0518 25.9984ZM83.7886 26.688C84.246 26.688 84.6888 26.5955 85.1014 26.3975L84.2359 24.5945C84.1151 24.6525 83.9713 24.688 83.7886 24.688V26.688ZM85.1158 26.3904C85.4968 26.2 85.8561 25.9365 86.196 25.6218L84.8372 24.1542C84.6011 24.3728 84.3952 24.5147 84.2214 24.6016L85.1158 26.3904ZM86.5166 24.888V23.224H84.5166V24.888H86.5166ZM85.3981 22.2311C84.6531 22.32 84.0122 22.442 83.5044 22.6113L84.1369 24.5087C84.461 24.4006 84.9509 24.2987 85.6352 24.2169L85.3981 22.2311ZM83.5044 22.6113C83.0141 22.7747 82.5272 23.0164 82.1794 23.4052L83.6699 24.7388C83.6847 24.7222 83.7951 24.6226 84.1369 24.5087L83.5044 22.6113ZM82.1772 23.4076C81.8372 23.7902 81.6686 24.2586 81.6686 24.76H83.6686C83.6686 24.7468 83.6697 24.7393 83.6701 24.7366C83.6706 24.7339 83.6707 24.7343 83.6698 24.7367C83.6689 24.7392 83.6679 24.7412 83.6672 24.7423C83.6667 24.7432 83.6677 24.7412 83.672 24.7364L82.1772 23.4076ZM81.6686 24.76C81.6686 25.3186 81.8629 25.9127 82.4152 26.2992L83.5621 24.6608C83.5807 24.6738 83.6016 24.6922 83.6212 24.716C83.6407 24.7398 83.6541 24.7631 83.6624 24.7819C83.6786 24.8183 83.6686 24.8205 83.6686 24.76H81.6686ZM82.4436 26.3184C82.8564 26.5867 83.3249 26.688 83.7886 26.688V24.688C83.6124 24.688 83.5476 24.6506 83.5336 24.6416L82.4436 26.3184ZM91.0206 27H90.0206V28H91.0206V27ZM91.0206 20.6H92.0206V19.6H91.0206V20.6ZM88.5566 20.6H87.5566V21.6H88.5566V20.6ZM88.5566 19.144V18.144H87.5566V19.144H88.5566ZM95.3406 19.144H96.3406V18.144H95.3406V19.144ZM95.3406 20.6V21.6H96.3406V20.6H95.3406ZM92.8766 20.6V19.6H91.8766V20.6H92.8766ZM92.8766 27V28H93.8766V27H92.8766ZM92.0206 27V20.6H90.0206V27H92.0206ZM91.0206 19.6H88.5566V21.6H91.0206V19.6ZM89.5566 20.6V19.144H87.5566V20.6H89.5566ZM88.5566 20.144H95.3406V18.144H88.5566V20.144ZM94.3406 19.144V20.6H96.3406V19.144H94.3406ZM95.3406 19.6H92.8766V21.6H95.3406V19.6ZM91.8766 20.6V27H93.8766V20.6H91.8766ZM92.8766 26H91.0206V28H92.8766V26ZM96.918 27H95.918V28H96.918V27ZM96.918 19.144V18.144H95.918V19.144H96.918ZM98.758 19.144H99.758V18.144H98.758V19.144ZM98.758 21.832H97.758V22.832H98.758V21.832ZM102.774 22.904L101.971 23.5003L101.971 23.5003L102.774 22.904ZM102.774 25.912L101.963 25.3265L101.963 25.3265L102.774 25.912ZM98.758 25.576H97.758V26.576H98.758V25.576ZM101.014 25.288L101.614 26.088L101.619 26.0842L101.014 25.288ZM101.014 23.512L100.414 24.312L100.433 24.3259L100.452 24.3389L101.014 23.512ZM98.758 23.224V22.224H97.758V23.224H98.758ZM97.918 27V19.144H95.918V27H97.918ZM96.918 20.144H98.758V18.144H96.918V20.144ZM97.758 19.144V21.832H99.758V19.144H97.758ZM98.758 22.832H99.942V20.832H98.758V22.832ZM99.942 22.832C100.482 22.832 100.928 22.9054 101.293 23.0325L101.951 21.1435C101.335 20.9293 100.66 20.832 99.942 20.832V22.832ZM101.293 23.0325C101.618 23.1453 101.827 23.3065 101.971 23.5003L103.577 22.3077C103.166 21.7548 102.608 21.372 101.951 21.1435L101.293 23.0325ZM101.971 23.5003C102.084 23.6522 102.19 23.9177 102.19 24.392H104.19C104.19 23.629 104.019 22.9025 103.577 22.3077L101.971 23.5003ZM102.19 24.392C102.19 24.8795 102.083 25.1611 101.963 25.3265L103.585 26.4975C104.02 25.8949 104.19 25.1632 104.19 24.392H102.19ZM101.963 25.3265C101.818 25.5281 101.61 25.6894 101.293 25.7995L101.951 27.6885C102.615 27.4573 103.176 27.0639 103.585 26.4975L101.963 25.3265ZM101.293 25.7995C100.928 25.9266 100.482 26 99.942 26V28C100.66 28 101.335 27.9027 101.951 27.6885L101.293 25.7995ZM99.942 26H96.918V28H99.942V26ZM98.758 26.576H99.814V24.576H98.758V26.576ZM99.814 26.576C100.438 26.576 101.101 26.473 101.614 26.088L100.414 24.488C100.422 24.4823 100.392 24.5067 100.289 24.5316C100.185 24.5565 100.031 24.576 99.814 24.576V26.576ZM101.619 26.0842C102.188 25.652 102.414 25.0204 102.414 24.376H100.414C100.414 24.4702 100.398 24.5057 100.398 24.5063C100.398 24.5066 100.4 24.5027 100.404 24.4974C100.408 24.492 100.411 24.4903 100.409 24.4918L101.619 26.0842ZM102.414 24.376C102.414 23.7345 102.18 23.0955 101.576 22.6851L100.452 24.3389C100.448 24.3363 100.439 24.3291 100.428 24.3167C100.417 24.3041 100.41 24.2922 100.407 24.2841C100.399 24.2684 100.414 24.2894 100.414 24.376H102.414ZM101.614 22.712C101.101 22.327 100.438 22.224 99.814 22.224V24.224C100.031 24.224 100.185 24.2435 100.289 24.2684C100.392 24.2933 100.422 24.3177 100.414 24.312L101.614 22.712ZM99.814 22.224H98.758V24.224H99.814V22.224ZM97.758 23.224V25.576H99.758V23.224H97.758Z" fill="black" mask="url(#path-3-outside-1_7409_964)"/>
</g>
</g>
<defs>
<filter id="filter0_d_7409_964" x="0" y="0" width="126" height="48" filterUnits="userSpaceOnUse" color-interpolation-filters="sRGB">
<feFlood flood-opacity="0" result="BackgroundImageFix"/>
<feColorMatrix in="SourceAlpha" type="matrix" values="0 0 0 0 0 0 0 0 0 0 0 0 0 0 0 0 0 0 127 0" result="hardAlpha"/>
<feOffset dx="2" dy="2"/>
<feGaussianBlur stdDeviation="2"/>
<feComposite in2="hardAlpha" operator="out"/>
<feColorMatrix type="matrix" values="0 0 0 0 0 0 0 0 0 0 0 0 0 0 0 0 0 0 0.2 0"/>
<feBlend mode="normal" in2="BackgroundImageFix" result="effect1_dropShadow_7409_964"/>
<feBlend mode="normal" in="SourceGraphic" in2="effect1_dropShadow_7409_964" result="shape"/>
</filter>
<filter id="filter1_d_7409_964" x="41.7832" y="15.3438" width="66.4062" height="23.4082" filterUnits="userSpaceOnUse" color-interpolation-filters="sRGB">
<feFlood flood-opacity="0" result="BackgroundImageFix"/>
<feColorMatrix in="SourceAlpha" type="matrix" values="0 0 0 0 0 0 0 0 0 0 0 0 0 0 0 0 0 0 127 0" result="hardAlpha"/>
<feOffset dy="4"/>
<feGaussianBlur stdDeviation="2"/>
<feComposite in2="hardAlpha" operator="out"/>
<feColorMatrix type="matrix" values="0 0 0 0 0 0 0 0 0 0 0 0 0 0 0 0 0 0 0.25 0"/>
<feBlend mode="normal" in2="BackgroundImageFix" result="effect1_dropShadow_7409_964"/>
<feBlend mode="normal" in="SourceGraphic" in2="effect1_dropShadow_7409_964" result="shape"/>
</filter>
</defs>
</svg>
