<svg xmlns="http://www.w3.org/2000/svg" width="18" height="15" fill="none"><path fill="#fff" d="M4.346 0c-1.013 0-1.895.67-2.14 1.624L.24 9.254c-.045.171-.065.345-.065.52v3.083C.176 14.04 1.165 15 2.382 15h13.235c1.217 0 2.206-.96 2.206-2.143V9.773c0-.174-.02-.348-.066-.519l-1.964-7.63C15.548.67 14.666 0 13.653 0H4.345Zm0 2.143h9.306l1.655 6.428h-1.765c-.417 0-.8.228-.986.593l-.493.958a1.108 1.108 0 0 1-.985.592H6.924c-.417 0-.8-.227-.985-.592l-.493-.958a1.109 1.109 0 0 0-.986-.593H2.692l1.654-6.428Z"/></svg>